<svg version="1" xmlns="http://www.w3.org/2000/svg" width="933.333" height="933.333"
     viewBox="0 0 700.000000 700.000000">
    <path d="M339.5 1.2c-9 1.7-19.4 7.4-26.5 14.7-10.3 10.5-15 22-15 36.8V61h-67.9c-57.5 0-69.1.2-76.1 1.6-37.2 7-65.1 33.6-74.7 71-1.7 6.5-1.8 21-1.8 246.9v240l2.3 8.5c5.5 21.1 19.1 40.9 36.7 53.6 7.5 5.5 22 12.1 32.1 14.6l8.9 2.3h385l8.9-2.3c21.5-5.5 41.2-18.8 54.2-36.7 5.2-7.2 12.1-22 14.7-31.7l2.2-8.3v-240c0-225.9-.1-240.4-1.8-246.9-8.1-31.5-29.7-56.1-58.6-66.6-16-5.9-18-6-92.2-6H402v-8.3c0-15-4.6-26.3-15-36.7-12.8-13-29.7-18.2-47.5-14.8zm19.4 28c4.8 1.5 11 7.5 13.7 13.3 2.3 4.9 2.4 5.7 2.4 35.2V108h-50V77.7c0-28.2.2-30.5 2.1-34.7 5.8-12.9 17.8-18.1 31.8-13.8zm-61.4 69.3v10l-20 .5c-13.2.3-20.7.9-22.2 1.7-1.1.7-3 3.2-4.2 5.6-2 4.1-2.1 5.9-2.1 32.2 0 25.7.2 28.2 2 32 3.9 8.1-3.5 7.5 99 7.5s95.1.6 99-7.5c1.8-3.8 2-6.3 2-32 0-26.3-.1-28.1-2.1-32.2-1.2-2.4-3.1-4.9-4.2-5.6-1.5-.8-9-1.4-22.2-1.7l-20-.5v-20l64.5-.3c44.8-.2 66.8 0 72 .8 21.6 3.3 39.8 16.7 49.6 36.5 8 16 7.5-2.9 7.1 259-.2 221.8-.3 233.3-2.1 239-7 23.4-24.9 40.7-48.6 47.2-6.1 1.7-17.2 1.8-195 1.8s-188.9-.1-195-1.8c-23.9-6.5-41.4-23.6-48.7-47.3-1.7-5.6-1.8-17.5-2.1-237.9-.2-168.2 0-234.2.8-240 3.3-23.3 18.8-43.2 40.9-52.4 11.3-4.8 14.3-4.9 85.1-4.8l66.5.2v10zm125.5 50V161H277v-25h146v12.5z"/>
    <path d="M187.6 211c-1.5.5-3.7 1.7-4.8 2.7-5 4.4-4.8-1.2-4.8 147.8 0 151.3-.3 143.2 5.5 148.5l2.7 2.5 162.5.3c182.4.2 167.3.9 171.3-7.2 2-4.2 2-5.3 2-144.2 0-131.2-.1-140.1-1.8-143.3-.9-1.9-3-4.4-4.5-5.5l-2.8-2.1-161.2-.2c-88.7-.1-162.5.2-164.1.7zM494 362v124H206V238h288v124z"/>
    <path d="M338.5 259.6c-20.4 4.9-35.3 17.8-43 36.9-2.3 5.7-2.9 9-3.3 17.5-.7 15.5 3.1 27.8 11.7 38.8l3.8 4.7-8.1 4.5c-8.9 5-22 16.8-29.2 26.3-6.2 8.2-13.8 24.2-16.5 34.7-1.6 6-2.3 11.6-2.3 19.2l-.1 10.8 3.8 3.7 3.7 3.8h182l3.7-3.8 3.8-3.7-.1-10.8c0-7.6-.7-13.2-2.3-19.2-2.7-10.5-10.3-26.5-16.4-34.6-7.1-9.3-19.7-20.8-28.6-26-4.5-2.6-8.1-4.9-8.1-5.1 0-.2 1.6-2.5 3.5-5 8.4-11 11.9-23 11.3-38.3-.4-8.5-1-11.8-3.3-17.5-6.7-16.6-18.4-28.1-35-34.5-4.7-1.8-8.4-2.4-17.5-2.6-6.3-.2-12.4-.1-13.5.2zm25.2 29.9c10.6 5.2 16.7 15.2 16.7 27.5.1 9-2.1 14.6-8.3 21.3-5.8 6.3-12.7 9.1-22.1 9.1-12.8 0-22.9-6.5-28.3-18.2-2.9-6.4-2.9-17.8 0-24.3 7.3-16.3 26.1-23.1 42-15.4zm8.8 89.9c20.9 7.1 38.6 24.7 45.4 45.3 1.2 3.4 2.1 6.7 2.1 7.3 0 .7-22.6 1-70 1s-70-.3-70-1c0-2.5 4.5-14.1 7.7-19.9 6.6-11.9 21.5-25.3 33.9-30.6 9.9-4.2 17.5-5.5 30.4-5.2 10.4.3 13.8.8 20.5 3.1zM555 216.3c-9.3 3.3-10.8 18.6-2.4 24.2 3.7 2.4 11 2.5 14.6.1 7.4-4.9 7.5-19.5.1-23.4-3.3-1.8-8.7-2.2-12.3-.9zM553.3 257c-7.1 4.3-6.8 2.3-6.8 53.5 0 43.3.1 46.2 1.9 49.1 2.5 4.2 6.5 6.4 11.6 6.4s9.1-2.2 11.6-6.4c1.8-2.9 1.9-5.8 1.9-49.1 0-42.7-.1-46.3-1.8-48.8-2.5-3.8-7.5-6.7-11.7-6.7-1.9 0-4.9.9-6.7 2zM164.7 536.9c-4.2.9-8 4-9.6 8-.8 1.8-1.1 17.1-.9 50.3l.3 47.7 3 3.1c6.8 7.1 17.6 5.6 22.1-3.2 1-2 1.4-7.1 1.4-19.6v-16.9l7.3-.6c13-1 23-6.4 28.8-15.5 11.7-18.3 5-41.2-14.6-50.3-5.8-2.8-7.4-3-20.2-3.4-7.6-.2-15.5-.1-17.6.4zm28.8 29.6c3 3 3.1 5.4.4 8.9-1.8 2.2-2.8 2.6-7.5 2.6H181v-14h5c4.1 0 5.6.5 7.5 2.5zM245 537c-2 .5-4.9 2.4-6.7 4.4L235 545v48.1c0 53.1-.2 51.6 6.3 55.4 3.9 2.3 10.7 2.4 14.1.2 4.3-2.9 6-6.5 6.6-14.2l.5-7.1 9.5 10.2c5.2 5.7 10.9 10.9 12.5 11.6 7.6 3.2 16.3-.6 18.6-8.2 2-6.7.3-10.1-12.7-23.9l-11.7-12.4 5.2-2.4c14.8-7.1 22.7-23.6 18.7-39.3-3.7-14.4-14.3-23.8-29.3-26-8-1.1-23.4-1.1-28.3 0zm28.8 28.6c1.6 1.1 2.2 2.5 2.2 5.1 0 5.4-2.3 7.3-8.7 7.3H262v-14h4.8c2.7 0 5.7.7 7 1.6zM326.5 536.9c-4.9 1.2-7.4 3-9.2 6.4-1.6 2.9-1.8 7.2-1.8 50.2s.1 47.3 1.8 50.2c3.4 6.4 5.4 6.8 32.7 6.8 27.3 0 29.4-.4 32.6-6.7 3.4-6.7 1.2-15.2-4.9-18.5-2.6-1.4-6.3-1.8-18.9-2.1l-15.8-.4V607h15.8c17.2 0 20.1-.8 23.8-6.5 2.2-3.4 2.2-10.6 0-14-3.7-5.7-6.6-6.5-23.8-6.5H343v-16h15.1c16.7 0 20.3-.9 24-6.2 4.3-5.9 2-16.1-4.4-19.5-2.8-1.6-6.3-1.8-25.7-2-12.4-.1-23.8.2-25.5.6zM424.9 538c-10 1.7-20.5 9.5-24.9 18.5-3.7 7.6-4.6 15.3-2.7 23.1 3.9 15.5 14.6 24.8 31 26.8 6.7.9 9.7 3.2 9.7 7.4 0 5.5-7 9.1-11.3 6-1-.7-2.5-2.9-3.5-4.8-5.2-10.4-19.1-10.4-24.5 0-4.6 9 4.2 23.7 18.1 30.3 5.2 2.4 7.6 2.9 13.5 2.9 10.4 0 17.7-3 24.8-10.1 20.5-20.6 7.9-55.3-21.4-58.6-7.6-.9-9.7-2.5-9.7-7.6 0-4.3 2.7-6.9 7.2-6.9 2.9 0 4.8 1.5 7.4 5.9 2.3 3.9 6.4 6.1 11.4 6.1 7.4 0 12.1-3.9 13.5-11.4 1.4-7.2-7.2-19.3-17.2-24.4-3.2-1.7-14.4-4.5-16.2-4.1-.3.1-2.7.5-5.2.9zM505.7 538c-10.9 1.9-20 8.7-24.9 18.8-2.9 5.9-3.3 7.6-3.3 15.2 0 7.1.4 9.4 2.7 14.2 5.2 11.1 14.7 18 27.5 20 10.2 1.6 13.8 6.3 9.2 12.2-1.5 1.9-3 2.6-5.3 2.6-3.5 0-5.4-1.5-8-6.8-4.8-9.3-18.2-9.5-23.4-.3-2.8 5-2.8 8.4.2 14.8 6.3 13.5 21.6 21.6 36.3 19.3 11.3-1.8 19.8-7.9 25.4-18.2 3.2-5.9 3.4-6.9 3.4-15.8 0-7.9-.4-10.3-2.4-14.2-5.5-11.3-14.6-17.9-27.2-19.9-10.8-1.8-14.5-6.3-9.8-12.3 1.5-1.9 3-2.6 5.5-2.6 2.9 0 3.9.7 6.9 4.8 3.9 5.5 6.9 7.2 12.6 7.2 10.5 0 16.1-10.3 11.3-20.6-6-12.7-22.2-20.8-36.7-18.4z"/>
</svg>